<svg width="35" height="29" viewBox="0 0 35 29" fill="none" xmlns="http://www.w3.org/2000/svg">
<path d="M34.7615 0C34.0264 2.90755 33.2913 6.06055 32.5561 9.45898C31.856 12.8197 31.2084 16.1426 30.6133 19.4277C30.0181 22.7129 29.5455 25.696 29.1955 28.377H19.9012L19.1136 27.1309C19.7437 24.3743 20.5489 21.429 21.529 18.2949C22.5442 15.1608 23.6294 12.0267 24.7847 8.89258C25.9749 5.7207 27.1651 2.75651 28.3553 0H34.7615ZM15.4379 0C14.7028 2.90755 13.9676 6.06055 13.2325 9.45898C12.5324 12.8197 11.8847 16.1426 11.2896 19.4277C10.6945 22.7129 10.2219 25.696 9.87185 28.377H0.630118L0 27.1309C0.630118 24.3743 1.41777 21.429 2.36294 18.2949C3.34313 15.1608 4.41083 12.0267 5.56605 8.89258C6.72126 5.7207 7.89398 2.75651 9.08421 0H15.4379Z" fill="#EC8403"/>
</svg>
