<svg width="28" height="27" viewBox="0 0 28 27" fill="none" xmlns="http://www.w3.org/2000/svg">
<path d="M25.25 0.691406H2.74414C1.71289 0.691406 0.875 1.54102 0.875 2.58398V25.0488C0.875 26.0918 1.71289 26.9414 2.74414 26.9414H25.25C26.2812 26.9414 27.125 26.0918 27.125 25.0488V2.58398C27.125 1.54102 26.2812 0.691406 25.25 0.691406ZM8.80859 23.1914H4.91797V10.6641H8.81445V23.1914H8.80859ZM6.86328 8.95312C5.61523 8.95312 4.60742 7.93945 4.60742 6.69727C4.60742 5.45508 5.61523 4.44141 6.86328 4.44141C8.10547 4.44141 9.11914 5.45508 9.11914 6.69727C9.11914 7.94531 8.11133 8.95312 6.86328 8.95312ZM23.3926 23.1914H19.502V17.0977C19.502 15.6445 19.4727 13.7754 17.4805 13.7754C15.4531 13.7754 15.1426 15.3574 15.1426 16.9922V23.1914H11.252V10.6641H14.9844V12.375H15.0371C15.5586 11.3906 16.8301 10.3535 18.7227 10.3535C22.6602 10.3535 23.3926 12.9492 23.3926 16.3242V23.1914Z" fill="white"/>
</svg>
